PathFileType	4	(X/Y/Z)	C:\Users\dbl\Desktop\20210112\20210112\bx_n_0_503.trc
DataRate	CameraRate	NumFrames	NumMarkers	Units	OrigDataRate	OrigDataStartFrame	OrigNumFrames
50.00	50.00	       6	43	mm	50.00	84	       333
Frame#	Time	Top.Head			R.Acromium			L.Acromium			Sternum			R.ASIS			L.ASIS			V.Sacral			R.Thigh.Upper			R.Thigh.Front			R.Thigh.Rear			R.Knee.Lat			R.Knee.Med			R.Shank.Upper			R.Shank.Front			R.Shank.Rear			R.Ankle.Lat			R.Midfoot.Lat			R.Toe.Lat			R.Toe.Tip			R.Toe.Med			R.Ankle.Med			R.Midfoot.Sup			R.Heel			L.Thigh.Upper			L.Thigh.Front			L.Thigh.Rear			L.Knee.Lat			L.Knee.Med			L.Shank.Upper			L.Shank.Front			L.Shank.Rear			L.Ankle.Lat			L.Midfoot.Lat			L.Toe.Lat			L.Toe.Tip			L.Toe.Med			L.Ankle.Med			L.Midfoot.Sup			L.Heel			origin1 front left			origin2 front right			origin 3 back right			origin 4 back leftt			
		X1	Y1	Z1	X2	Y2	Z2	X3	Y3	Z3	X4	Y4	Z4	X5	Y5	Z5	X6	Y6	Z6	X7	Y7	Z7	X8	Y8	Z8	X9	Y9	Z9	X10	Y10	Z10	X11	Y11	Z11	X12	Y12	Z12	X13	Y13	Z13	X14	Y14	Z14	X15	Y15	Z15	X16	Y16	Z16	X17	Y17	Z17	X18	Y18	Z18	X19	Y19	Z19	X20	Y20	Z20	X21	Y21	Z21	X22	Y22	Z22	X23	Y23	Z23	X24	Y24	Z24	X25	Y25	Z25	X26	Y26	Z26	X27	Y27	Z27	X28	Y28	Z28	X29	Y29	Z29	X30	Y30	Z30	X31	Y31	Z31	X32	Y32	Z32	X33	Y33	Z33	X34	Y34	Z34	X35	Y35	Z35	X36	Y36	Z36	X37	Y37	Z37	X38	Y38	Z38	X39	Y39	Z39	X40	Y40	Z40	X41	Y41	Z41	X42	Y42	Z42	X43	Y43	Z43	

84	1.660	-562.92383	127.15363	1841.11951	-617.41125	-65.86269	1538.03491	-640.04309	296.22885	1530.16919	-557.56262	114.50349	1339.79749	-596.02411	-1.61601	1052.12292	-602.80151	245.16391	1061.99194	-799.88586	99.28896	1068.18860	-670.20282	-69.28727	873.93292	-592.43768	-7.16875	802.89844	-690.82452	-60.61008	758.01318	-713.71783	-35.12775	615.59082	-696.96637	74.14296	572.19409	-721.29462	-32.73719	569.74292	-671.24243	13.65062	520.36066	-764.96350	-44.89614	489.75153	-760.34808	-20.31127	206.64333	-649.14624	-68.29053	160.93867	-606.30719	-72.56572	158.08832	-549.35059	-24.37368	164.52136	-600.82111	27.47443	168.23618	-719.90271	68.27627	216.94705	-675.45776	52.27239	160.41628	-793.02521	38.56987	175.15565	-689.56787	287.38638	873.50592	-593.68164	225.54111	792.27063	-697.24500	274.03201	743.76813	-731.00171	256.23474	641.70715	-694.60315	145.86215	575.24493	-728.58496	250.03729	575.57458	-677.02386	206.35173	534.41003	-766.67932	261.76260	500.78592	-765.12476	227.54581	205.32257	-652.68280	292.07813	156.43872	-615.41882	297.90350	158.48784	-552.62708	243.16397	166.02626	-588.92999	207.95496	174.46078	-714.78833	151.05316	217.79967	-675.56128	166.43808	158.37219	-795.51862	180.22446	184.75850	-528.21857	304.07211	146.48131	-517.52271	-72.76064	143.45824	-875.97766	-78.83804	141.37779	-882.49457	296.11407	144.65244	
85	1.680	-557.71637	127.16432	1840.14490	-614.37653	-65.80357	1537.48718	-636.78931	296.34299	1529.86462	-556.39380	114.45837	1338.60889	-597.55945	-1.63432	1051.99438	-604.04541	245.08952	1061.74487	-801.15070	99.35770	1068.83582	-671.88452	-69.25211	873.96252	-593.88306	-7.18334	802.93579	-692.19604	-60.54050	758.01038	-714.65424	-35.17221	615.67352	-697.55096	74.17698	572.23694	-722.09656	-32.81168	569.77179	-672.00604	13.69792	520.47504	-765.65308	-44.79650	489.63782	-760.47162	-20.30858	206.52029	-649.12292	-68.26491	160.89377	-606.30493	-72.57125	158.09674	-549.37451	-24.36944	164.50146	-600.84161	27.46421	168.21854	-719.96716	68.28706	216.97998	-675.44104	52.26656	160.43298	-793.11066	38.61259	175.12257	-691.15314	287.23923	873.55090	-595.02808	225.71729	792.35162	-698.52734	274.08951	743.78986	-732.01898	256.24100	641.66766	-695.51630	145.89925	575.15063	-729.46417	250.05446	575.50824	-677.80420	206.39322	534.48846	-767.39246	261.76651	500.71219	-765.20166	227.61110	205.30968	-652.69757	292.09442	156.45258	-615.42267	297.90570	158.48836	-552.65204	243.14214	165.98325	-588.99554	208.00140	174.39937	-714.87897	151.16348	217.80006	-675.56500	166.49931	158.36864	-795.50879	180.20520	184.67302	-528.23016	304.07825	146.47920	-517.61041	-72.75087	143.43449	-875.96259	-78.82996	141.37906	-882.49072	296.13583	144.66437	
86	1.700	-552.28064	127.20253	1839.08276	-611.15912	-65.74166	1536.87012	-633.38422	296.44110	1529.48938	-555.14630	114.41415	1337.34094	-599.07721	-1.66367	1051.75439	-605.33459	245.01962	1061.41064	-802.45062	99.43527	1069.50598	-673.69495	-69.19033	874.01233	-595.47119	-7.25473	802.96625	-693.66144	-60.55807	758.06665	-715.62048	-35.23566	615.76410	-698.31482	74.21410	572.27496	-722.95978	-32.89226	569.77032	-672.80237	13.74455	520.55951	-766.40710	-44.65232	489.51758	-760.56116	-20.31263	206.42000	-649.10242	-68.24069	160.84213	-606.29388	-72.60642	158.09172	-549.35468	-24.39435	164.54750	-600.87012	27.43267	168.19229	-720.01404	68.31969	217.01385	-675.43182	52.26353	160.44205	-793.17065	38.61459	175.10150	-692.76672	287.04797	873.59436	-596.39117	225.88043	792.47522	-699.89435	274.19144	743.78607	-733.05023	256.26749	641.65326	-696.48822	145.97202	575.06598	-730.38306	250.08109	575.42181	-678.55652	206.41602	534.52374	-768.15912	261.71835	500.62958	-765.29565	227.67561	205.30693	-652.70502	292.10559	156.42191	-615.42505	297.92218	158.49484	-552.67010	243.12599	165.96210	-589.03778	208.02834	174.36115	-714.93182	151.29086	217.81284	-675.55609	166.55478	158.38657	-795.48450	180.23564	184.61249	-528.22626	304.08478	146.46825	-517.67938	-72.74876	143.38573	-875.95905	-78.83285	141.37766	-882.50568	296.16931	144.67992	
87	1.720	-546.61499	127.27495	1837.92554	-607.75140	-65.67647	1536.19763	-629.82538	296.44876	1529.03564	-553.85510	114.37389	1335.99756	-600.63019	-1.66945	1051.38794	-606.63623	244.93326	1061.11255	-803.75842	99.54698	1070.19189	-675.63037	-69.09277	874.08606	-597.18323	-7.35504	803.00690	-695.20416	-60.68309	758.18036	-716.64758	-35.28524	615.83740	-699.29907	74.23065	572.27283	-723.86853	-32.94799	569.78485	-673.63678	13.78881	520.63373	-767.20917	-44.53619	489.39786	-760.61804	-20.33466	206.36346	-649.09058	-68.23583	160.80269	-606.27509	-72.66322	158.07861	-549.31805	-24.44249	164.64146	-600.90369	27.40344	168.15353	-720.06952	68.33221	217.03711	-675.43158	52.26672	160.44920	-793.19519	38.59045	175.09787	-694.39929	286.89761	873.68524	-597.80627	225.98993	792.62036	-701.31854	274.33789	743.78131	-734.12958	256.33475	641.65466	-697.52551	146.03979	575.04657	-731.33234	250.11642	575.35193	-679.28485	206.45775	534.54834	-768.94781	261.68082	500.55264	-765.39404	227.72900	205.30943	-652.70569	292.10040	156.36043	-615.41522	297.95392	158.51237	-552.67249	243.11885	165.97119	-589.04364	208.03552	174.36319	-714.95398	151.40858	217.83585	-675.53253	166.59171	158.40840	-795.43610	180.31087	184.56870	-528.22174	304.09430	146.45958	-517.68872	-72.78256	143.34273	-875.96063	-78.83730	141.37628	-882.53674	296.18231	144.67889	
88	1.740	-540.71802	127.38502	1836.64941	-604.17053	-65.63747	1535.48718	-626.08807	296.37189	1528.49707	-552.51831	114.35104	1334.59705	-602.25317	-1.66990	1050.95691	-607.92743	244.86354	1060.93896	-805.09723	99.67020	1070.91541	-677.63708	-68.97969	874.17090	-598.97858	-7.45141	803.06970	-696.78546	-60.85414	758.30463	-717.76563	-35.31356	615.88171	-700.45660	74.21340	572.24622	-724.84277	-32.95868	569.82764	-674.51422	13.81528	520.74341	-768.07654	-44.52161	489.29880	-760.65869	-20.37113	206.34450	-649.08490	-68.24875	160.77637	-606.26215	-72.71043	158.06769	-549.30988	-24.48782	164.72000	-600.94250	27.39761	168.11055	-720.15131	68.30651	217.04544	-675.43848	52.27797	160.46901	-793.20544	38.56065	175.10634	-696.04968	286.82199	873.82648	-599.30188	226.04294	792.74774	-702.75958	274.49976	743.77490	-735.27356	256.45160	641.65491	-698.61304	146.04311	575.08252	-732.29895	250.14212	575.31836	-680.05731	206.53346	534.58868	-769.75610	261.72568	500.51556	-765.49115	227.77113	205.31677	-652.70972	292.08234	156.29321	-615.38696	297.99124	158.53571	-552.66260	243.11385	165.99648	-589.03778	208.03468	174.38890	-714.96277	151.47501	217.85628	-675.49670	166.60918	158.42308	-795.40302	180.40250	184.53799	-528.21594	304.09689	146.45445	-517.64893	-72.85704	143.32237	-875.95428	-78.82389	141.37468	-882.56268	296.16910	144.66586	
89	1.760	-534.61255	127.53172	1835.22168	-600.44159	-65.64592	1534.74646	-622.14618	296.27634	1527.86670	-551.11438	114.34221	1333.15552	-603.95135	-1.71374	1050.53857	-609.26886	244.81068	1060.85498	-806.50555	99.76006	1071.69836	-679.66809	-68.89214	874.27716	-600.83313	-7.54650	803.15936	-698.40558	-61.00859	758.40845	-718.97559	-35.33868	615.89386	-701.71185	74.18510	572.23529	-725.95636	-32.91423	569.85175	-675.44360	13.79493	520.91339	-769.00232	-44.61531	489.22888	-760.68848	-20.41694	206.34067	-649.08148	-68.26945	160.75694	-606.25922	-72.72514	158.05823	-549.35632	-24.50990	164.73178	-600.98553	27.40942	168.08971	-720.25195	68.26513	217.05087	-675.44830	52.29338	160.51038	-793.23303	38.53639	175.11610	-697.74011	286.80560	873.97485	-600.88800	226.04625	792.82141	-704.19141	274.62155	743.75452	-736.45679	256.56610	641.61584	-699.73633	145.97672	575.11914	-733.26691	250.16983	575.32404	-680.90869	206.61087	534.65027	-770.59259	261.85028	500.50165	-765.59064	227.80959	205.32947	-652.72491	292.06607	156.24483	-615.35541	298.01563	158.54610	-552.64801	243.09955	166.02133	-589.02240	208.02373	174.42596	-714.98035	151.49628	217.85527	-675.48206	166.60649	158.43561	-795.40759	180.49448	184.51703	-528.20026	304.07602	146.45313	-517.61420	-72.93534	143.31233	-875.94659	-78.80121	141.37857	-882.56018	296.15454	144.66812	
